<?xml version="1.0" standalone="no"?>
<!DOCTYPE svg PUBLIC "-//W3C//DTD SVG 20010904//EN"
 "http://www.w3.org/TR/2001/REC-SVG-20010904/DTD/svg10.dtd">
<svg version="1.0" xmlns="http://www.w3.org/2000/svg"
 width="936.000000pt" height="936.000000pt" viewBox="0 0 936.000000 936.000000"
 preserveAspectRatio="xMidYMid meet">
<metadata>
Created by potrace 1.11, written by Peter Selinger 2001-2013
</metadata>
<g transform="translate(0.000000,936.000000) scale(0.100000,-0.100000)"
fill="#000000" stroke="none">
<path d="M4878 6710 c-473 -98 -813 -426 -929 -894 -23 -91 -34 -340 -20 -416
5 -25 11 -63 14 -85 20 -146 149 -410 261 -534 60 -65 72 -76 131 -127 221
-188 503 -287 795 -279 119 4 153 8 265 36 83 21 231 80 275 109 14 9 32 19
40 22 23 8 170 121 200 152 l24 27 -206 206 -207 207 -43 -35 c-74 -60 -167
-108 -245 -125 -60 -13 -206 -12 -266 2 -211 49 -386 221 -442 434 -22 82 -14
257 14 336 65 182 239 341 414 379 10 2 28 7 38 10 37 12 193 6 250 -9 84 -23
163 -61 223 -111 l55 -44 206 206 c113 113 205 209 205 212 0 10 -92 86 -161
134 -132 92 -304 162 -468 191 -111 20 -318 18 -423 -4z"/>
<path d="M0 4670 l0 -2048 290 0 c261 0 290 2 291 17 3 42 5 4057 1 4067 -2 8
-87 11 -293 11 l-289 0 0 -2047z"/>
<path d="M1756 6711 c-2 -3 -4 -529 -4 -1168 0 -1079 1 -1163 16 -1164 21 -1
542 -1 560 0 9 1 12 67 12 294 l0 293 157 -1 c87 0 191 3 233 7 99 10 245 54
300 88 8 6 24 14 36 19 34 15 157 111 198 155 125 134 207 299 235 471 16 95
6 278 -19 365 -43 150 -141 314 -251 417 -59 54 -178 131 -256 163 -154 64
-195 68 -731 68 -265 0 -484 -3 -486 -7z m951 -590 c259 -70 288 -426 43 -540
-52 -24 -66 -25 -232 -28 l-178 -2 0 289 0 289 88 3 c131 4 237 0 279 -11z"/>
<path d="M6430 6423 l0 -293 263 1 c144 0 276 0 292 0 l30 -1 0 -875 0 -875
25 -1 c14 0 144 -1 290 -1 l265 -1 3 876 2 877 118 0 c64 1 196 2 292 3 l175
2 0 291 0 291 -877 0 -878 0 0 -294z"/>
<path d="M8769 6702 c0 -21 0 -4005 0 -4049 l1 -31 293 1 292 2 1 2035 c0
1119 -1 2040 -3 2046 -3 8 -93 11 -293 11 -263 1 -290 0 -291 -15z"/>
<path d="M1754 3785 c-2 -5 -2 -269 -1 -585 l2 -575 293 -1 292 -2 -2 587 -3
586 -289 0 c-184 0 -290 -4 -292 -10z"/>
<path d="M3513 3793 c-5 -2 -7 -112 -6 -245 1 -134 2 -397 2 -584 l1 -342 293
2 292 1 0 583 c0 382 -3 582 -10 583 -20 3 -565 4 -572 2z"/>
<path d="M5264 3791 c-2 -2 -4 -266 -4 -586 l0 -582 294 -1 294 0 1 584 c0
321 -3 585 -7 585 -20 4 -574 4 -578 0z"/>
<path d="M7016 3790 c-1 -3 -2 -266 -2 -585 l1 -580 290 0 290 0 0 585 0 585
-288 0 c-159 0 -290 -2 -291 -5z"/>
</g>
</svg>
