<svg width="109" height="22" viewBox="0 0 109 22" fill="none" xmlns="http://www.w3.org/2000/svg">
<path d="M25.4338 13.4764C23.9364 13.4764 22.4183 12.9082 21.2745 11.792C20.1723 10.7164 19.5484 9.2552 19.5484 7.73313C19.5484 6.21106 20.1515 4.77017 21.2745 3.67428C23.5621 1.44191 27.3054 1.44191 29.593 3.67428L27.5342 5.68341C26.3904 4.54693 24.4979 4.54693 23.3541 5.68341C22.7926 6.23135 22.4807 6.96195 22.4807 7.71283C22.4807 8.48402 22.7926 9.21461 23.3541 9.76256C24.5187 10.899 26.3904 10.899 27.5342 9.76256L29.593 11.7717C28.4492 12.9082 26.9311 13.4764 25.4338 13.4764ZM13.1224 7.73313C13.9127 7.73313 14.5781 7.10401 14.5781 6.31253C14.5781 5.52105 13.9335 4.89193 13.1224 4.89193H11.6459V7.73313H13.1224ZM13.1224 2.07103C15.5348 2.07103 17.4896 3.97869 17.4896 6.33283C17.4896 8.68696 15.5348 10.5946 13.1224 10.5946H11.6459V13.4561H8.7344V2.07103H10.1901H13.1224ZM46.6667 22H43.7552V2.07103H46.6667V22ZM40.8437 4.91223H37.9323V13.4561H35.0208V4.91223H32.1093V2.07103H40.8645V4.91223H40.8437ZM37.9115 22H35V16.2973H37.9115V22ZM29.1563 16.2973H26.2448V22H29.1563V16.2973ZM20.4219 22H17.5104V16.2973H20.4219V22ZM11.6667 16.2973H8.7552V22H11.6667V16.2973ZM2.91147 22H0V2.07103H2.91147V22Z" fill="white"/>
<path d="M56.3877 3.66943H54.4277V9H53.1094V3.66943H51.1758V2.60156H56.3877V3.66943ZM64.6714 5.9458C64.6714 6.57568 64.5601 7.12793 64.3374 7.60254C64.1147 8.07715 63.7954 8.44336 63.3794 8.70117C62.9663 8.95898 62.4917 9.08789 61.9556 9.08789C61.4663 9.08789 61.0269 8.98242 60.6372 8.77148C60.2505 8.55762 59.9355 8.25146 59.6924 7.85303C59.4521 7.45459 59.3042 6.98877 59.2485 6.45557H58.5146V9H57.1963V2.60156H58.5146V5.43164H59.2266C59.2529 4.85449 59.3804 4.34473 59.6089 3.90234C59.8403 3.45996 60.1582 3.11865 60.5625 2.87842C60.9697 2.63525 61.4312 2.51367 61.9468 2.51367C62.48 2.51367 62.9531 2.64258 63.3662 2.90039C63.7822 3.15527 64.103 3.52295 64.3286 4.00342C64.5571 4.48096 64.6714 5.0332 64.6714 5.66016V5.9458ZM63.3354 5.65576C63.3354 4.98486 63.2153 4.4751 62.9751 4.12646C62.7349 3.77783 62.3921 3.60352 61.9468 3.60352C61.5044 3.60352 61.1631 3.77637 60.9229 4.12207C60.6826 4.46484 60.561 4.96875 60.5581 5.63379V5.9458C60.5581 6.59912 60.6782 7.10596 60.9185 7.46631C61.1587 7.82666 61.5044 8.00684 61.9556 8.00684C62.3979 8.00684 62.7378 7.83398 62.9751 7.48828C63.2124 7.13965 63.3325 6.63281 63.3354 5.96777V5.65576ZM67.3564 2.60156L69 7.24219L70.6348 2.60156H72.3662V9H71.0435V7.25098L71.1753 4.23193L69.4482 9H68.543L66.8203 4.23633L66.9521 7.25098V9H65.6338V2.60156H67.3564ZM77.3672 6.22705H74.8359V7.94092H77.8066V9H73.5176V2.60156H77.7979V3.66943H74.8359V5.19434H77.3672V6.22705ZM83.7876 9H82.4692V6.25781H79.8984V9H78.5801V2.60156H79.8984V5.19434H82.4692V2.60156H83.7876V9ZM89.9663 6.86865C89.9165 7.55713 89.6616 8.09912 89.2017 8.49463C88.7446 8.89014 88.1411 9.08789 87.3911 9.08789C86.5708 9.08789 85.9248 8.8125 85.4531 8.26172C84.9844 7.70801 84.75 6.94922 84.75 5.98535V5.59424C84.75 4.979 84.8584 4.43701 85.0752 3.96826C85.292 3.49951 85.6011 3.14063 86.0024 2.8916C86.4067 2.63965 86.8755 2.51367 87.4087 2.51367C88.147 2.51367 88.7417 2.71143 89.1929 3.10693C89.644 3.50244 89.9048 4.05762 89.9751 4.77246H88.6567C88.6245 4.35938 88.5088 4.06055 88.3096 3.87598C88.1133 3.68848 87.813 3.59473 87.4087 3.59473C86.9692 3.59473 86.6396 3.75293 86.4199 4.06934C86.2031 4.38281 86.0918 4.87061 86.0859 5.53271V6.01611C86.0859 6.70752 86.1899 7.21289 86.3979 7.53223C86.6089 7.85156 86.9399 8.01123 87.3911 8.01123C87.7983 8.01123 88.1016 7.91895 88.3008 7.73438C88.5029 7.54688 88.6187 7.2583 88.6479 6.86865H89.9663ZM92.9194 6.38525H92.1592V9H90.8408V2.60156H92.1592V5.16357H92.7612L94.3257 2.60156H95.9341L93.9609 5.62939L96.1406 9H94.5674L92.9194 6.38525ZM100.487 2.60156H101.81V9H100.487V4.75049L97.9248 9H96.6064V2.60156H97.9248V6.85986L100.487 2.60156ZM106.789 2.60156H108.111V9H106.789V4.75049L104.227 9H102.908V2.60156H104.227V6.85986L106.789 2.60156ZM107.043 0.918457C107.043 1.30811 106.903 1.62305 106.622 1.86328C106.343 2.10352 105.977 2.22363 105.523 2.22363C105.069 2.22363 104.701 2.10498 104.42 1.86768C104.142 1.63037 104.002 1.31396 104.002 0.918457H104.903C104.903 1.10303 104.958 1.24658 105.066 1.34912C105.177 1.44873 105.33 1.49854 105.523 1.49854C105.713 1.49854 105.863 1.44873 105.971 1.34912C106.08 1.24658 106.134 1.10303 106.134 0.918457H107.043ZM51.5142 13.6016H52.8325V18.9409H55.3945V13.6016H56.7173V18.9409H57.5918L57.5039 21.5425H56.2734V20H51.5142V13.6016ZM63.4233 17.8687C63.3735 18.5571 63.1187 19.0991 62.6587 19.4946C62.2017 19.8901 61.5981 20.0879 60.8481 20.0879C60.0278 20.0879 59.3818 19.8125 58.9102 19.2617C58.4414 18.708 58.207 17.9492 58.207 16.9854V16.5942C58.207 15.979 58.3154 15.437 58.5322 14.9683C58.749 14.4995 59.0581 14.1406 59.4595 13.8916C59.8638 13.6396 60.3325 13.5137 60.8657 13.5137C61.604 13.5137 62.1987 13.7114 62.6499 14.1069C63.1011 14.5024 63.3618 15.0576 63.4321 15.7725H62.1138C62.0815 15.3594 61.9658 15.0605 61.7666 14.876C61.5703 14.6885 61.27 14.5947 60.8657 14.5947C60.4263 14.5947 60.0967 14.7529 59.877 15.0693C59.6602 15.3828 59.5488 15.8706 59.543 16.5327V17.0161C59.543 17.7075 59.647 18.2129 59.855 18.5322C60.0659 18.8516 60.397 19.0112 60.8481 19.0112C61.2554 19.0112 61.5586 18.9189 61.7578 18.7344C61.96 18.5469 62.0757 18.2583 62.105 17.8687H63.4233ZM66.0117 13.6016L67.6553 18.2422L69.29 13.6016H71.0215V20H69.6987V18.251L69.8306 15.2319L68.1035 20H67.1982L65.4756 15.2363L65.6074 18.251V20H64.2891V13.6016H66.0117Z" fill="white"/>
</svg>
